<svg width="15" height="15" viewBox="0 0 15 15" fill="none" xmlns="http://www.w3.org/2000/svg">
<path d="M8.146 3.147C8.22736 3.0651 8.33456 3.01388 8.4494 3.00203C8.56423 2.99018 8.67963 3.01844 8.776 3.082L8.854 3.147L12.854 7.147C12.9477 7.24076 13.0004 7.36792 13.0004 7.5005C13.0004 7.63308 12.9477 7.76023 12.854 7.854L8.854 11.854C8.80758 11.9005 8.75245 11.9374 8.69177 11.9626C8.6311 11.9877 8.56605 12.0007 8.50035 12.0008C8.43466 12.0008 8.36959 11.9879 8.30888 11.9628C8.24816 11.9377 8.19299 11.9009 8.1465 11.8545C8.10001 11.8081 8.06312 11.753 8.03794 11.6923C8.01275 11.6316 7.99977 11.5666 7.99972 11.5009C7.99968 11.4352 8.01257 11.3701 8.03767 11.3094C8.06277 11.2487 8.09958 11.1935 8.146 11.147L11.293 8H2.5C2.36739 8 2.24021 7.94732 2.14645 7.85355C2.05268 7.75978 2 7.63261 2 7.5C2 7.36739 2.05268 7.24021 2.14645 7.14645C2.24021 7.05268 2.36739 7 2.5 7H11.293L8.146 3.854L8.082 3.776C8.01831 3.67974 7.98989 3.56441 8.00156 3.44958C8.01322 3.33474 8.06426 3.22749 8.146 3.146" fill="black"/>
</svg>
