<svg width="24" height="24" viewBox="0 0 24 24" fill="none" xmlns="http://www.w3.org/2000/svg">
<path fill-rule="evenodd" clip-rule="evenodd" d="M7.88119 6.9078L10.7675 1.27464C11.1005 0.624776 11.9056 0.363692 12.5657 0.691492C12.8249 0.820183 13.0345 1.02831 13.1631 1.28451L15.8889 6.71705C16.1116 7.16083 16.5469 7.46384 17.0462 7.52253L22.7543 8.1936C23.5293 8.2847 24.0824 8.97699 23.9899 9.73986C23.9518 10.0541 23.806 10.3461 23.5766 10.5677L19.0649 14.9272C18.8827 15.1032 18.7944 15.3529 18.8262 15.6022L19.576 21.4878C19.6833 22.3303 19.0765 23.099 18.2206 23.2047C17.8963 23.2447 17.5673 23.1836 17.2801 23.0299L12.5134 20.478C12.1685 20.2934 11.7534 20.2881 11.4038 20.4639L6.46508 22.9464C5.77002 23.2958 4.91885 23.0244 4.56394 22.3401C4.43115 22.0841 4.38218 21.7939 4.42378 21.5093L4.81849 18.8091C5.01155 17.4883 5.84535 16.3427 7.05361 15.738L12.5388 12.9931C12.6853 12.9198 12.7437 12.7435 12.6692 12.5993C12.6115 12.4876 12.4881 12.4244 12.362 12.442L5.65361 13.3836C4.62811 13.5276 3.5881 13.2439 2.78407 12.6009L0.549649 10.814C-0.0879862 10.3041 -0.184995 9.38189 0.332973 8.75417C0.573845 8.46226 0.919571 8.27278 1.2985 8.22499L7.0269 7.50254C7.3943 7.45621 7.71438 7.23337 7.88119 6.9078Z" fill="#FEBC2F"/>
</svg>
